<svg width="50" height="50" viewBox="0 0 50 50" fill="none" xmlns="http://www.w3.org/2000/svg">
<path d="M42.6758 5.85938H30.3711C30.21 5.85938 30.0781 5.99121 30.0781 6.15234V8.88672C30.0781 9.04785 30.21 9.17969 30.3711 9.17969H38.2031L28.4717 18.9111C26.0303 17.0312 23.0518 16.0156 19.9219 16.0156C16.167 16.0156 12.6318 17.4805 9.98047 20.1367C7.3291 22.793 5.85938 26.3232 5.85938 30.0781C5.85938 33.833 7.32422 37.3682 9.98047 40.0195C12.6318 42.6758 16.167 44.1406 19.9219 44.1406C23.6768 44.1406 27.2119 42.6758 29.8633 40.0195C32.5195 37.3682 33.9844 33.833 33.9844 30.0781C33.9844 26.9482 32.9688 23.9795 31.0938 21.5381L40.8203 11.8115V19.6289C40.8203 19.79 40.9521 19.9219 41.1133 19.9219H43.8477C44.0088 19.9219 44.1406 19.79 44.1406 19.6289V7.32422C44.1406 6.51855 43.4814 5.85938 42.6758 5.85938ZM19.9219 40.4297C14.2139 40.4297 9.57031 35.7861 9.57031 30.0781C9.57031 24.3701 14.2139 19.7266 19.9219 19.7266C25.6299 19.7266 30.2734 24.3701 30.2734 30.0781C30.2734 35.7861 25.6299 40.4297 19.9219 40.4297Z" fill="white"/>
</svg>
