<svg width="50" height="50" viewBox="0 0 50 50" fill="none" xmlns="http://www.w3.org/2000/svg">
<path d="M34.8047 26.7969C37.4219 24.1797 38.8672 20.6934 38.8672 16.9922C38.8672 13.2861 37.4268 9.80469 34.8047 7.1875C32.1875 4.57031 28.7012 3.125 25 3.125C21.2988 3.125 17.8125 4.56543 15.1953 7.1875C12.5781 9.80957 11.1328 13.2861 11.1328 16.9922C11.1328 20.1074 12.1533 23.0664 14.0332 25.4834C14.3896 25.9424 14.7754 26.377 15.1904 26.7969C15.6055 27.2119 16.0449 27.5977 16.499 27.9541C18.4326 29.458 20.7129 30.415 23.1445 30.7373V35.9375H17.5781C17.3633 35.9375 17.1875 36.1133 17.1875 36.3281V39.2578C17.1875 39.4727 17.3633 39.6484 17.5781 39.6484H23.1445V46.4844C23.1445 46.6992 23.3203 46.875 23.5352 46.875H26.4648C26.6797 46.875 26.8555 46.6992 26.8555 46.4844V39.6484H32.4219C32.6367 39.6484 32.8125 39.4727 32.8125 39.2578V36.3281C32.8125 36.1133 32.6367 35.9375 32.4219 35.9375H26.8555V30.7373C29.8584 30.3369 32.627 28.9746 34.8047 26.7969ZM25 27.1484C22.2852 27.1484 19.7412 26.0938 17.8174 24.1748C15.8984 22.2559 14.8438 19.707 14.8438 16.9922C14.8438 14.2773 15.8984 11.7334 17.8174 9.80957C19.7363 7.88574 22.2852 6.83594 25 6.83594C27.7148 6.83594 30.2588 7.89062 32.1826 9.80957C34.1016 11.7285 35.1562 14.2773 35.1562 16.9922C35.1562 19.707 34.1016 22.251 32.1826 24.1748C30.2588 26.0938 27.7148 27.1484 25 27.1484Z" fill="white"/>
</svg>
